# xmcd CD database file
#
# Track frame offsets:
#	182
#	11945
#	23680
#	38437
#	52145
#	64187
#	79360
#	94220
#	107960
#	123255
#	136920
#	149780
#	163882
#	178582
#	191992
#	205027
#	219470
#	232510
#	247262
#	261257
#	275710
#
# Disc length: 3852 seconds
#
# Revision: 1
# Processed by: cddbd v1.5.2PL0 Copyright (c) Steve Scherf et al.
# Submitted via: CDex 1.70beta2
#
DISCID=430f0a15
DTITLE=Coleman Hawkins - 1939-1940 - Classics
DYEAR=1940
DGENRE=Swing
TTITLE0=Meet Doctor Foo
TTITLE1=Fine Dinner
TTITLE2=She's Funny That Way
TTITLE3=Body And Soul
TTITLE4=It's Tight Like That
TTITLE5=Easy Rider
TTITLE6=Scratch My Back
TTITLE7=Save It, Pretty Mama
TTITLE8=When Day Is Done
TTITLE9=The Shelk Of Araby
TTITLE10=My Blue Haven
TTITLE11=Bouncing With Bean
TTITLE12=How Long, How Long Blues
TTITLE13=Shake It And Break It
TTITLE14=A Pretty Girl Is Like A Melody
TTITLE15=Pom Pom
TTITLE16=Dedication
TTITLE17=Passin' It Around
TTITLE18=Serenade To A Sleeping Beauty
TTITLE19=Rocky Comfort
TTITLE20=Forgive A Fool
EXTD=YEAR: 1940
EXTT0=
EXTT1=
EXTT2=
EXTT3=
EXTT4=
EXTT5=
EXTT6=
EXTT7=
EXTT8=
EXTT9=
EXTT10=
EXTT11=
EXTT12=
EXTT13=
EXTT14=
EXTT15=
EXTT16=
EXTT17=
EXTT18=
EXTT19=
EXTT20=
PLAYORDER=
